<mxfile host="app.diagrams.net" agent="Mozilla/5.0 (Windows NT 10.0; Win64; x64) AppleWebKit/537.36 (KHTML, like Gecko) Chrome/135.0.0.0 Safari/537.36" version="26.2.9">
  <diagram name="Seite-1" id="pArKIvWV0Ie2IOMnOSwz">
    <mxGraphModel dx="1836" dy="977" grid="1" gridSize="10" guides="1" tooltips="1" connect="1" arrows="1" fold="1" page="1" pageScale="1" pageWidth="1600" pageHeight="900" math="0" shadow="0">
      <root>
        <mxCell id="0" />
        <mxCell id="1" parent="0" />
        <mxCell id="kdcl5A4r0haPVFtbAzIB-2" value="Class" style="rounded=1;arcSize=10;whiteSpace=wrap;html=1;align=center;" parent="1" vertex="1">
          <mxGeometry x="1070" y="460" width="100" height="40" as="geometry" />
        </mxCell>
        <mxCell id="kdcl5A4r0haPVFtbAzIB-3" value="Item" style="rounded=1;arcSize=10;whiteSpace=wrap;html=1;align=center;" parent="1" vertex="1">
          <mxGeometry x="590" y="170" width="100" height="40" as="geometry" />
        </mxCell>
        <mxCell id="kdcl5A4r0haPVFtbAzIB-60" value="" style="edgeStyle=orthogonalEdgeStyle;rounded=0;orthogonalLoop=1;jettySize=auto;html=1;endArrow=none;endFill=0;" parent="1" source="kdcl5A4r0haPVFtbAzIB-4" target="kdcl5A4r0haPVFtbAzIB-39" edge="1">
          <mxGeometry relative="1" as="geometry" />
        </mxCell>
        <mxCell id="kdcl5A4r0haPVFtbAzIB-4" value="Guild" style="rounded=1;arcSize=10;whiteSpace=wrap;html=1;align=center;" parent="1" vertex="1">
          <mxGeometry x="590" y="710" width="100" height="40" as="geometry" />
        </mxCell>
        <mxCell id="kdcl5A4r0haPVFtbAzIB-12" style="edgeStyle=orthogonalEdgeStyle;rounded=0;orthogonalLoop=1;jettySize=auto;html=1;entryX=0.5;entryY=0;entryDx=0;entryDy=0;endArrow=none;endFill=0;" parent="1" source="kdcl5A4r0haPVFtbAzIB-5" target="kdcl5A4r0haPVFtbAzIB-9" edge="1">
          <mxGeometry relative="1" as="geometry" />
        </mxCell>
        <mxCell id="kdcl5A4r0haPVFtbAzIB-15" style="edgeStyle=orthogonalEdgeStyle;rounded=0;orthogonalLoop=1;jettySize=auto;html=1;exitX=1;exitY=0.5;exitDx=0;exitDy=0;entryX=0;entryY=0.5;entryDx=0;entryDy=0;endArrow=none;endFill=0;" parent="1" source="kdcl5A4r0haPVFtbAzIB-5" target="kdcl5A4r0haPVFtbAzIB-8" edge="1">
          <mxGeometry relative="1" as="geometry" />
        </mxCell>
        <mxCell id="kdcl5A4r0haPVFtbAzIB-17" style="edgeStyle=orthogonalEdgeStyle;rounded=0;orthogonalLoop=1;jettySize=auto;html=1;exitX=0.5;exitY=0;exitDx=0;exitDy=0;entryX=0.5;entryY=1;entryDx=0;entryDy=0;endArrow=none;endFill=0;" parent="1" source="kdcl5A4r0haPVFtbAzIB-5" target="kdcl5A4r0haPVFtbAzIB-10" edge="1">
          <mxGeometry relative="1" as="geometry" />
        </mxCell>
        <mxCell id="kdcl5A4r0haPVFtbAzIB-5" value="Player" style="rounded=1;arcSize=10;whiteSpace=wrap;html=1;align=center;" parent="1" vertex="1">
          <mxGeometry x="590" y="460" width="100" height="40" as="geometry" />
        </mxCell>
        <mxCell id="kdcl5A4r0haPVFtbAzIB-16" style="edgeStyle=orthogonalEdgeStyle;rounded=0;orthogonalLoop=1;jettySize=auto;html=1;exitX=1;exitY=0.5;exitDx=0;exitDy=0;entryX=0;entryY=0.5;entryDx=0;entryDy=0;" parent="1" source="kdcl5A4r0haPVFtbAzIB-8" target="kdcl5A4r0haPVFtbAzIB-2" edge="1">
          <mxGeometry relative="1" as="geometry" />
        </mxCell>
        <mxCell id="kdcl5A4r0haPVFtbAzIB-8" value="selected_class" style="shape=rhombus;perimeter=rhombusPerimeter;whiteSpace=wrap;html=1;align=center;" parent="1" vertex="1">
          <mxGeometry x="850" y="450" width="120" height="60" as="geometry" />
        </mxCell>
        <mxCell id="kdcl5A4r0haPVFtbAzIB-14" style="edgeStyle=orthogonalEdgeStyle;rounded=0;orthogonalLoop=1;jettySize=auto;html=1;entryX=0.5;entryY=0;entryDx=0;entryDy=0;" parent="1" source="kdcl5A4r0haPVFtbAzIB-9" target="kdcl5A4r0haPVFtbAzIB-4" edge="1">
          <mxGeometry relative="1" as="geometry" />
        </mxCell>
        <mxCell id="kdcl5A4r0haPVFtbAzIB-9" value="guild_member" style="shape=rhombus;perimeter=rhombusPerimeter;whiteSpace=wrap;html=1;align=center;" parent="1" vertex="1">
          <mxGeometry x="580" y="580" width="120" height="60" as="geometry" />
        </mxCell>
        <mxCell id="kdcl5A4r0haPVFtbAzIB-18" style="edgeStyle=orthogonalEdgeStyle;rounded=0;orthogonalLoop=1;jettySize=auto;html=1;exitX=0.5;exitY=0;exitDx=0;exitDy=0;entryX=0.5;entryY=1;entryDx=0;entryDy=0;endArrow=none;endFill=0;" parent="1" source="kdcl5A4r0haPVFtbAzIB-10" target="kdcl5A4r0haPVFtbAzIB-3" edge="1">
          <mxGeometry relative="1" as="geometry" />
        </mxCell>
        <mxCell id="kdcl5A4r0haPVFtbAzIB-10" value="collected" style="shape=rhombus;perimeter=rhombusPerimeter;whiteSpace=wrap;html=1;align=center;" parent="1" vertex="1">
          <mxGeometry x="580" y="280" width="120" height="60" as="geometry" />
        </mxCell>
        <mxCell id="kdcl5A4r0haPVFtbAzIB-19" value="PlayerName" style="ellipse;whiteSpace=wrap;html=1;align=center;" parent="1" vertex="1">
          <mxGeometry x="460" y="520" width="100" height="40" as="geometry" />
        </mxCell>
        <mxCell id="kdcl5A4r0haPVFtbAzIB-20" value="ClassName" style="ellipse;whiteSpace=wrap;html=1;align=center;" parent="1" vertex="1">
          <mxGeometry x="1075" y="530" width="100" height="40" as="geometry" />
        </mxCell>
        <mxCell id="kdcl5A4r0haPVFtbAzIB-59" style="edgeStyle=orthogonalEdgeStyle;rounded=0;orthogonalLoop=1;jettySize=auto;html=1;exitX=0;exitY=0.5;exitDx=0;exitDy=0;entryX=1;entryY=0.5;entryDx=0;entryDy=0;endArrow=none;endFill=0;" parent="1" source="kdcl5A4r0haPVFtbAzIB-21" target="kdcl5A4r0haPVFtbAzIB-4" edge="1">
          <mxGeometry relative="1" as="geometry" />
        </mxCell>
        <mxCell id="kdcl5A4r0haPVFtbAzIB-21" value="GuildName" style="ellipse;whiteSpace=wrap;html=1;align=center;" parent="1" vertex="1">
          <mxGeometry x="725" y="710" width="100" height="40" as="geometry" />
        </mxCell>
        <mxCell id="kdcl5A4r0haPVFtbAzIB-22" value="PlayerGold" style="ellipse;whiteSpace=wrap;html=1;align=center;" parent="1" vertex="1">
          <mxGeometry x="690" y="390" width="100" height="40" as="geometry" />
        </mxCell>
        <mxCell id="_syBXvTLSiN-7isg7iN2-3" style="edgeStyle=orthogonalEdgeStyle;rounded=0;orthogonalLoop=1;jettySize=auto;html=1;exitX=0;exitY=0.5;exitDx=0;exitDy=0;entryX=1;entryY=0.5;entryDx=0;entryDy=0;endArrow=none;startFill=0;" edge="1" parent="1" source="kdcl5A4r0haPVFtbAzIB-23" target="kdcl5A4r0haPVFtbAzIB-9">
          <mxGeometry relative="1" as="geometry" />
        </mxCell>
        <mxCell id="kdcl5A4r0haPVFtbAzIB-23" value="GuildRank" style="ellipse;whiteSpace=wrap;html=1;align=center;" parent="1" vertex="1">
          <mxGeometry x="720" y="590" width="100" height="40" as="geometry" />
        </mxCell>
        <mxCell id="kdcl5A4r0haPVFtbAzIB-24" value="PlayerLevel" style="ellipse;whiteSpace=wrap;html=1;align=center;" parent="1" vertex="1">
          <mxGeometry x="500" y="370" width="100" height="40" as="geometry" />
        </mxCell>
        <mxCell id="kdcl5A4r0haPVFtbAzIB-25" value="[1,*]" style="text;html=1;align=center;verticalAlign=middle;resizable=0;points=[];autosize=1;strokeColor=none;fillColor=none;" parent="1" vertex="1">
          <mxGeometry x="640" y="500" width="40" height="30" as="geometry" />
        </mxCell>
        <mxCell id="kdcl5A4r0haPVFtbAzIB-26" value="[0,1]" style="text;html=1;align=center;verticalAlign=middle;resizable=0;points=[];autosize=1;strokeColor=none;fillColor=none;" parent="1" vertex="1">
          <mxGeometry x="635" y="680" width="50" height="30" as="geometry" />
        </mxCell>
        <mxCell id="kdcl5A4r0haPVFtbAzIB-27" value="N" style="text;html=1;align=center;verticalAlign=middle;resizable=0;points=[];autosize=1;strokeColor=none;fillColor=none;" parent="1" vertex="1">
          <mxGeometry x="610" y="500" width="30" height="30" as="geometry" />
        </mxCell>
        <mxCell id="kdcl5A4r0haPVFtbAzIB-28" value="1" style="text;html=1;align=center;verticalAlign=middle;resizable=0;points=[];autosize=1;strokeColor=none;fillColor=none;" parent="1" vertex="1">
          <mxGeometry x="605" y="680" width="30" height="30" as="geometry" />
        </mxCell>
        <mxCell id="kdcl5A4r0haPVFtbAzIB-29" value="[0,*]" style="text;html=1;align=center;verticalAlign=middle;resizable=0;points=[];autosize=1;strokeColor=none;fillColor=none;" parent="1" vertex="1">
          <mxGeometry x="690" y="450" width="40" height="30" as="geometry" />
        </mxCell>
        <mxCell id="kdcl5A4r0haPVFtbAzIB-30" value="N" style="text;html=1;align=center;verticalAlign=middle;resizable=0;points=[];autosize=1;strokeColor=none;fillColor=none;" parent="1" vertex="1">
          <mxGeometry x="695" y="478" width="30" height="30" as="geometry" />
        </mxCell>
        <mxCell id="kdcl5A4r0haPVFtbAzIB-31" value="[0,1]???" style="text;html=1;align=center;verticalAlign=middle;resizable=0;points=[];autosize=1;strokeColor=none;fillColor=none;" parent="1" vertex="1">
          <mxGeometry x="1005" y="448" width="70" height="30" as="geometry" />
        </mxCell>
        <mxCell id="kdcl5A4r0haPVFtbAzIB-32" value="1" style="text;html=1;align=center;verticalAlign=middle;resizable=0;points=[];autosize=1;strokeColor=none;fillColor=none;" parent="1" vertex="1">
          <mxGeometry x="1025" y="480" width="30" height="30" as="geometry" />
        </mxCell>
        <mxCell id="kdcl5A4r0haPVFtbAzIB-33" value="[0,*]" style="text;html=1;align=center;verticalAlign=middle;resizable=0;points=[];autosize=1;strokeColor=none;fillColor=none;" parent="1" vertex="1">
          <mxGeometry x="645" y="430" width="40" height="30" as="geometry" />
        </mxCell>
        <mxCell id="kdcl5A4r0haPVFtbAzIB-35" value="M" style="text;html=1;align=center;verticalAlign=middle;resizable=0;points=[];autosize=1;strokeColor=none;fillColor=none;" parent="1" vertex="1">
          <mxGeometry x="605" y="208" width="30" height="30" as="geometry" />
        </mxCell>
        <mxCell id="kdcl5A4r0haPVFtbAzIB-36" value="N" style="text;html=1;align=center;verticalAlign=middle;resizable=0;points=[];autosize=1;strokeColor=none;fillColor=none;" parent="1" vertex="1">
          <mxGeometry x="605" y="430" width="30" height="30" as="geometry" />
        </mxCell>
        <mxCell id="kdcl5A4r0haPVFtbAzIB-37" value="[0,*]" style="text;html=1;align=center;verticalAlign=middle;resizable=0;points=[];autosize=1;strokeColor=none;fillColor=none;" parent="1" vertex="1">
          <mxGeometry x="640" y="208" width="40" height="30" as="geometry" />
        </mxCell>
        <mxCell id="kdcl5A4r0haPVFtbAzIB-49" style="edgeStyle=orthogonalEdgeStyle;rounded=0;orthogonalLoop=1;jettySize=auto;html=1;entryX=0.5;entryY=0;entryDx=0;entryDy=0;endArrow=none;endFill=0;" parent="1" source="kdcl5A4r0haPVFtbAzIB-38" target="kdcl5A4r0haPVFtbAzIB-2" edge="1">
          <mxGeometry relative="1" as="geometry" />
        </mxCell>
        <mxCell id="kdcl5A4r0haPVFtbAzIB-38" value="ClassID" style="ellipse;whiteSpace=wrap;html=1;align=center;fontStyle=4;" parent="1" vertex="1">
          <mxGeometry x="1070" y="390" width="100" height="40" as="geometry" />
        </mxCell>
        <mxCell id="kdcl5A4r0haPVFtbAzIB-39" value="GuildID" style="ellipse;whiteSpace=wrap;html=1;align=center;fontStyle=4;" parent="1" vertex="1">
          <mxGeometry x="450" y="710" width="100" height="40" as="geometry" />
        </mxCell>
        <mxCell id="kdcl5A4r0haPVFtbAzIB-56" style="edgeStyle=orthogonalEdgeStyle;rounded=0;orthogonalLoop=1;jettySize=auto;html=1;exitX=1;exitY=0.5;exitDx=0;exitDy=0;entryX=0;entryY=0.75;entryDx=0;entryDy=0;endArrow=none;endFill=0;" parent="1" source="kdcl5A4r0haPVFtbAzIB-40" target="kdcl5A4r0haPVFtbAzIB-5" edge="1">
          <mxGeometry relative="1" as="geometry" />
        </mxCell>
        <mxCell id="kdcl5A4r0haPVFtbAzIB-40" value="PlayerID" style="ellipse;whiteSpace=wrap;html=1;align=center;fontStyle=4;" parent="1" vertex="1">
          <mxGeometry x="450" y="438" width="100" height="40" as="geometry" />
        </mxCell>
        <mxCell id="kdcl5A4r0haPVFtbAzIB-41" value="ItemID" style="ellipse;whiteSpace=wrap;html=1;align=center;fontStyle=4;" parent="1" vertex="1">
          <mxGeometry x="680" y="100" width="100" height="40" as="geometry" />
        </mxCell>
        <mxCell id="kdcl5A4r0haPVFtbAzIB-43" value="ItemName" style="ellipse;whiteSpace=wrap;html=1;align=center;" parent="1" vertex="1">
          <mxGeometry x="470" y="190" width="100" height="40" as="geometry" />
        </mxCell>
        <mxCell id="kdcl5A4r0haPVFtbAzIB-44" value="ItemRarity" style="ellipse;whiteSpace=wrap;html=1;align=center;" parent="1" vertex="1">
          <mxGeometry x="535" y="100" width="100" height="40" as="geometry" />
        </mxCell>
        <mxCell id="_syBXvTLSiN-7isg7iN2-4" style="edgeStyle=orthogonalEdgeStyle;rounded=0;orthogonalLoop=1;jettySize=auto;html=1;exitX=0;exitY=0.5;exitDx=0;exitDy=0;entryX=1;entryY=0;entryDx=0;entryDy=0;endArrow=none;startFill=0;" edge="1" parent="1" source="kdcl5A4r0haPVFtbAzIB-46" target="kdcl5A4r0haPVFtbAzIB-10">
          <mxGeometry relative="1" as="geometry" />
        </mxCell>
        <mxCell id="kdcl5A4r0haPVFtbAzIB-46" value="ItemAmount" style="ellipse;whiteSpace=wrap;html=1;align=center;" parent="1" vertex="1">
          <mxGeometry x="720" y="260" width="100" height="40" as="geometry" />
        </mxCell>
        <mxCell id="kdcl5A4r0haPVFtbAzIB-47" value="GuildLevel" style="ellipse;whiteSpace=wrap;html=1;align=center;" parent="1" vertex="1">
          <mxGeometry x="670" y="790" width="100" height="40" as="geometry" />
        </mxCell>
        <mxCell id="kdcl5A4r0haPVFtbAzIB-48" style="edgeStyle=orthogonalEdgeStyle;rounded=0;orthogonalLoop=1;jettySize=auto;html=1;entryX=0.55;entryY=1;entryDx=0;entryDy=0;entryPerimeter=0;endArrow=none;endFill=0;" parent="1" source="kdcl5A4r0haPVFtbAzIB-20" target="kdcl5A4r0haPVFtbAzIB-2" edge="1">
          <mxGeometry relative="1" as="geometry" />
        </mxCell>
        <mxCell id="kdcl5A4r0haPVFtbAzIB-50" style="edgeStyle=orthogonalEdgeStyle;rounded=0;orthogonalLoop=1;jettySize=auto;html=1;exitX=0;exitY=1;exitDx=0;exitDy=0;entryX=1.076;entryY=0.977;entryDx=0;entryDy=0;entryPerimeter=0;endArrow=none;endFill=0;" parent="1" source="kdcl5A4r0haPVFtbAzIB-22" target="kdcl5A4r0haPVFtbAzIB-33" edge="1">
          <mxGeometry relative="1" as="geometry" />
        </mxCell>
        <mxCell id="kdcl5A4r0haPVFtbAzIB-55" style="edgeStyle=orthogonalEdgeStyle;rounded=0;orthogonalLoop=1;jettySize=auto;html=1;exitX=1;exitY=0;exitDx=0;exitDy=0;entryX=0.089;entryY=0.98;entryDx=0;entryDy=0;entryPerimeter=0;endArrow=none;endFill=0;" parent="1" source="kdcl5A4r0haPVFtbAzIB-19" target="kdcl5A4r0haPVFtbAzIB-5" edge="1">
          <mxGeometry relative="1" as="geometry" />
        </mxCell>
        <mxCell id="kdcl5A4r0haPVFtbAzIB-57" style="edgeStyle=orthogonalEdgeStyle;rounded=0;orthogonalLoop=1;jettySize=auto;html=1;exitX=1;exitY=1;exitDx=0;exitDy=0;entryX=0.08;entryY=-0.073;entryDx=0;entryDy=0;entryPerimeter=0;endArrow=none;endFill=0;" parent="1" source="kdcl5A4r0haPVFtbAzIB-24" target="kdcl5A4r0haPVFtbAzIB-5" edge="1">
          <mxGeometry relative="1" as="geometry" />
        </mxCell>
        <mxCell id="kdcl5A4r0haPVFtbAzIB-62" style="edgeStyle=orthogonalEdgeStyle;rounded=0;orthogonalLoop=1;jettySize=auto;html=1;entryX=0.892;entryY=-0.073;entryDx=0;entryDy=0;entryPerimeter=0;endArrow=none;endFill=0;" parent="1" source="kdcl5A4r0haPVFtbAzIB-41" target="kdcl5A4r0haPVFtbAzIB-3" edge="1">
          <mxGeometry relative="1" as="geometry" />
        </mxCell>
        <mxCell id="kdcl5A4r0haPVFtbAzIB-63" style="edgeStyle=orthogonalEdgeStyle;rounded=0;orthogonalLoop=1;jettySize=auto;html=1;entryX=0.4;entryY=0;entryDx=0;entryDy=0;entryPerimeter=0;endArrow=none;endFill=0;" parent="1" source="kdcl5A4r0haPVFtbAzIB-44" target="kdcl5A4r0haPVFtbAzIB-3" edge="1">
          <mxGeometry relative="1" as="geometry" />
        </mxCell>
        <mxCell id="kdcl5A4r0haPVFtbAzIB-65" style="edgeStyle=orthogonalEdgeStyle;rounded=0;orthogonalLoop=1;jettySize=auto;html=1;exitX=1;exitY=0;exitDx=0;exitDy=0;entryX=0;entryY=0.644;entryDx=0;entryDy=0;entryPerimeter=0;endArrow=none;endFill=0;" parent="1" source="kdcl5A4r0haPVFtbAzIB-43" target="kdcl5A4r0haPVFtbAzIB-3" edge="1">
          <mxGeometry relative="1" as="geometry" />
        </mxCell>
        <mxCell id="_syBXvTLSiN-7isg7iN2-2" style="edgeStyle=orthogonalEdgeStyle;rounded=0;orthogonalLoop=1;jettySize=auto;html=1;entryX=0.678;entryY=1.091;entryDx=0;entryDy=0;entryPerimeter=0;endArrow=none;startFill=0;" edge="1" parent="1" source="kdcl5A4r0haPVFtbAzIB-47" target="kdcl5A4r0haPVFtbAzIB-4">
          <mxGeometry relative="1" as="geometry" />
        </mxCell>
      </root>
    </mxGraphModel>
  </diagram>
</mxfile>
